PathFileType	4	(X/Y/Z)	/Users/rkoike/Documents/python/sports2d/webcam_20250611_152632/webcam_20250611_152632_px_person01.trc
DataRate	CameraRate	NumFrames	NumMarkers	Units	OrigDataRate	OrigDataStartFrame	OrigNumFrames
30	30	13	22	m	30	1553	2485
Frame#	Time	Hip			RHip			RKnee			RAnkle			RBigToe			RSmallToe			RHeel			LHip			LKnee			LAnkle			LBigToe			LSmallToe			LHeel			Neck			Head			Nose			RShoulder			RElbow			RWrist			LShoulder			LElbow			LWrist			
		X1	Y1	Z1	X2	Y2	Z2	X3	Y3	Z3	X4	Y4	Z4	X5	Y5	Z5	X6	Y6	Z6	X7	Y7	Z7	X8	Y8	Z8	X9	Y9	Z9	X10	Y10	Z10	X11	Y11	Z11	X12	Y12	Z12	X13	Y13	Z13	X14	Y14	Z14	X15	Y15	Z15	X16	Y16	Z16	X17	Y17	Z17	X18	Y18	Z18	X19	Y19	Z19	X20	Y20	Z20	X21	Y21	Z21	X22	Y22	Z22
1553	51.78750670960815	719.6158657562789	473.24460328057194	0.0	858.8613975217058	493.7919367649559	0.0	893.6413902039258	714.3680351683486	0.0	433.96777319529133	785.5986328495965	0.0	280.943603515625	790.1848144531251	0.0	244.879150390625	790.1848144531251	0.0	226.846923828125	724.066650390625	0.0	599.9016320388492	497.7993215972457	0.0	629.352335970607	725.7836999146436	0.0	383.5185546875001	785.5986328125	0.0	118.05419921875	736.7119140624999	0.0	1115.274104571399	743.7251425896244	0.0	278.5900659301903	728.8483744875264	0.0	720.688149173174	5.636412140948077	0.0	1269.673339899016	-85.37500006394306	0.0	903.6186917319731	-47.704724621799905	0.0	963.8091481867998	-15.112962599795148	0.0	1029.4561670715261	142.97839452560513	0.0	882.8018337515497	120.74628505751505	0.0	483.8726283055714	-3.650423291035594	0.0	444.0852086308645	233.54147109304702	0.0	522.7731204137303	474.10841605225255	0.0
1554	51.8208534621578	719.0080028341099	473.6944413503621	0.0	857.8819588548103	492.8106311707552	0.0	894.4338555096161	714.6941868327202	0.0	433.96777290094735	785.598632894678	0.0	280.943603515625	790.1848144531251	0.0	244.879150390625	790.1848144531251	0.0	226.846923828125	724.066650390625	0.0	598.8291261214805	496.120965710366	0.0	627.2728031431692	724.9527819374207	0.0	383.5185546875001	785.5986328125	0.0	118.05419921875	736.7119140624999	0.0	1115.271616086465	743.7250744832816	0.0	278.5900659301903	728.8483744875264	0.0	723.0016557941857	4.413505690409676	0.0	1269.6733399536758	-85.37500014112213	0.0	904.640101674058	-47.602003569495736	0.0	963.1977477927892	-16.054693550080923	0.0	1025.5625743892595	138.95811239152152	0.0	880.240650906993	129.90053876046602	0.0	485.174099733346	-3.311245570001442	0.0	446.97997319629735	232.81501104055826	0.0	523.0669546360584	474.2439328463181	0.0
1555	51.854200214707454	717.598495312104	474.75206967945445	0.0	858.3454278644033	492.1706144217965	0.0	891.7971028915784	712.9328940895304	0.0	433.96777366188365	785.5986327781336	0.0	280.943603515625	790.1848144531251	0.0	244.879150390625	790.1848144531251	0.0	226.846923828125	724.066650390625	0.0	596.2220763242526	494.90055128895284	0.0	627.7697912568585	720.2979571379673	0.0	383.5185546875001	785.5986328125	0.0	118.05419921875	736.7119140624999	0.0	1115.2712763782313	743.7250657671514	0.0	278.5900659301903	728.8483744875264	0.0	721.8547963293968	10.09751480950016	0.0	1269.6733397950154	-85.37499994107445	0.0	903.4225864489486	-47.73369620902303	0.0	963.8470638139356	-10.286117454696075	0.0	1023.0204712537397	145.95112211590464	0.0	888.8677225089555	134.80894489424614	0.0	485.8470682872875	0.5731782781994644	0.0	447.09824092178025	233.48389179494473	0.0	520.7470687041235	476.4256897011072	0.0
1556	51.88754696725711	717.703576476272	473.39309427188505	0.0	858.530058186029	491.1461551140962	0.0	891.7237335681392	712.3110310401971	0.0	433.96777660102845	785.5986323279767	0.0	280.943603515625	790.1848144531251	0.0	244.879150390625	790.1848144531251	0.0	226.846923828125	724.066650390625	0.0	594.8606437741237	493.8216174910426	0.0	627.5825014970688	718.4263586663994	0.0	383.5185546875001	785.5986328125	0.0	118.05419921875	736.7119140624999	0.0	1115.2716312516998	743.7250766341701	0.0	278.5900659301903	728.8483744875264	0.0	722.6972763176514	8.01508496408008	0.0	1269.6733391814464	-85.37499916906555	0.0	902.7875348794894	-47.82706947771178	0.0	963.3334993499169	-8.687368047583002	0.0	1020.4063209009767	155.27726662969343	0.0	887.7134681209994	130.1112894751066	0.0	487.1055601310909	2.65054384021329	0.0	447.520518368003	235.09572478198618	0.0	519.5708301499782	478.10834655575474	0.0
1557	51.920893719806756	719.907356544259	470.54358814372887	0.0	856.5211979247517	489.21355040545507	0.0	897.1826200300555	714.0735963086097	0.0	433.9677782615598	785.5986320736512	0.0	280.943603515625	790.1848144531251	0.0	244.879150390625	790.1848144531251	0.0	226.846923828125	724.066650390625	0.0	596.8762138703615	492.2948200012609	0.0	624.0419296355788	720.7496891296172	0.0	383.5185546875001	785.5986328125	0.0	118.05419921875	736.7119140624999	0.0	1115.2718289458885	743.7250812664632	0.0	278.5900659301903	728.8483744875264	0.0	728.9178416598401	-4.0088203194142125	0.0	1269.6733388343712	-85.37499873294841	0.0	902.7858957766168	-47.82688459329785	0.0	963.2529972474181	-11.437292678809817	0.0	1018.1067346796988	159.5400265606707	0.0	871.9655842195468	121.60780730005852	0.0	489.6148439149161	3.109960506215989	0.0	449.35285007970145	236.6990489072818	0.0	521.8674699434605	478.3953535941483	0.0
1558	51.95424047235641	722.1946428375322	470.14358185156283	0.0	853.3836260310985	487.51396710894767	0.0	902.4800388404047	716.2063003119509	0.0	433.9677663854291	785.5986338925891	0.0	280.943603515625	790.1848144531251	0.0	244.879150390625	790.1848144531251	0.0	226.846923828125	724.066650390625	0.0	600.5872383030527	491.1502232844172	0.0	620.1454472417114	722.5975316517417	0.0	383.5185546875001	785.5986328125	0.0	118.05419921875	736.7119140624999	0.0	1115.2718677146584	743.7250749549214	0.0	278.5900659301903	728.8483744875264	0.0	735.1166777719768	-10.61571993585213	0.0	1269.6733413198583	-85.37500185222436	0.0	902.823596140057	-47.6661324154472	0.0	966.1133175746036	-9.339993819803196	0.0	1017.2557220305163	158.45080808320841	0.0	859.1318044990256	123.06881460985397	0.0	491.5301272605557	6.442362865668866	0.0	450.5002474642106	237.74221394978554	0.0	525.0983984000676	478.33681074360425	0.0
1559	51.98758722490606	722.8980867107729	473.6719714378568	0.0	852.2805808230449	488.847341894615	0.0	901.4592317811922	716.5618676945496	0.0	433.9677354936963	785.5986386239402	0.0	280.943603515625	790.1848144531251	0.0	244.879150390625	790.1848144531251	0.0	226.846923828125	724.066650390625	0.0	601.9666041227468	492.9349425411459	0.0	621.1438040674952	721.4793586384836	0.0	383.5185546875001	785.5986328125	0.0	118.05419921875	736.7119140624999	0.0	1115.271909568739	743.725066157389	0.0	278.5900659301903	728.8483744875264	0.0	734.3594046792336	-2.2295531635616435	0.0	1269.6733477852263	-85.37500996592436	0.0	902.7029360796591	-47.38349877117785	0.0	969.4877775725377	-2.9040669963369874	0.0	1017.855975678333	156.84965871317755	0.0	862.6899030718764	132.76168993342023	0.0	490.90088875469297	12.331315536087635	0.0	449.47834736846283	238.55430020292684	0.0	525.432374777289	479.4278015060362	0.0
1560	52.02093397745571	722.0841779143758	479.0174994568293	0.0	853.6723772724679	493.9777205194754	0.0	899.8209392796363	715.2476529069897	0.0	433.96773784687645	785.5986382635292	0.0	280.943603515625	790.1848144531251	0.0	244.879150390625	790.1848144531251	0.0	226.846923828125	724.066650390625	0.0	599.7989935151057	498.05226438983203	0.0	625.3307898083012	719.5518051656053	0.0	383.5185546875001	785.5986328125	0.0	118.05419921875	736.7119140624999	0.0	1115.2718626581727	743.725083760153	0.0	278.5900659301903	728.8483744875264	0.0	729.7747052510535	11.599567669571153	0.0	1269.6733472926899	-85.37500934786034	0.0	902.835799613716	-47.61641741342418	0.0	970.9645281698844	-1.862256022266635	0.0	1019.8304228462091	158.18764534603804	0.0	873.9232707627881	133.43913140074426	0.0	489.07357277535584	15.627605999289656	0.0	447.70624872096266	239.3834124656498	0.0	523.4395382608066	483.0152214782303	0.0
1561	52.05428073000536	719.3161693044967	483.07599396274	0.0	854.2523470258556	499.1642557002158	0.0	908.753321945384	713.2160062267894	0.0	433.96790004681867	785.5986134211262	0.0	280.943603515625	790.1848144531251	0.0	244.879150390625	790.1848144531251	0.0	226.846923828125	724.066650390625	0.0	595.7300190772734	502.3384814576202	0.0	625.3515382731297	717.9311338789129	0.0	383.5185546875001	785.5986328125	0.0	118.05419921875	736.7119140624999	0.0	1115.2713954663532	743.7251573933397	0.0	278.5900659301903	728.8483744875264	0.0	730.2789212885585	19.456723800119086	0.0	1269.6733133449413	-85.374966746126	0.0	903.9463013283721	-49.47525828958829	0.0	974.8316307709603	-7.284372587239522	0.0	1024.6366457936565	163.8596660392146	0.0	880.078895843628	121.56128685027085	0.0	488.6798756874918	12.691072514546752	0.0	447.14803379046725	239.16580664506623	0.0	522.1519198962804	487.339021045559	0.0
1562	52.087627482555014	714.1771455314272	484.3433735633933	0.0	851.9336816533089	501.0208183591199	0.0	923.4925171191903	711.6772315707879	0.0	433.96819411994653	785.5985683811401	0.0	280.943603515625	790.1848144531251	0.0	244.879150390625	790.1848144531251	0.0	226.846923828125	724.066650390625	0.0	591.1091873955921	502.70635621018704	0.0	619.3457956526569	716.1794760976286	0.0	383.5185546875001	785.5986328125	0.0	118.05419921875	736.7119140624999	0.0	1115.2706783244914	743.7252043993843	0.0	278.5900659301903	728.8483744875264	0.0	736.1669160108738	23.02713506375548	0.0	1269.673251796682	-85.37488950796724	0.0	905.3451414617326	-51.79543954914246	0.0	984.1038094556588	-10.56073800795541	0.0	1033.7404179190148	174.9294078257409	0.0	885.8606089906356	114.7672388938576	0.0	489.28821277501913	5.495082845007125	0.0	447.3349654600139	237.16342203934565	0.0	521.8651941699808	487.3729046042539	0.0
1563	52.12097423510466	709.6433919746272	483.95514663800157	0.0	848.2869977491373	500.73114507229616	0.0	925.4744723199185	712.258288862219	0.0	433.9679207411161	785.5986102516055	0.0	280.943603515625	790.1848144531251	0.0	244.879150390625	790.1848144531251	0.0	226.846923828125	724.066650390625	0.0	588.2973127959667	501.54268538266086	0.0	612.3136460280472	716.05008526123	0.0	383.5185546875001	785.5986328125	0.0	118.05419921875	736.7119140624999	0.0	1115.271715425865	743.724917196973	0.0	278.5900659301903	728.8483744875264	0.0	740.2513709996076	26.75224393686572	0.0	1269.6733090137243	-85.37496131077948	0.0	902.2593034014769	-46.68646930565973	0.0	992.136383006505	-7.951706312797488	0.0	1047.046738332874	186.28872818198457	0.0	903.2248229588271	132.00536128488153	0.0	489.1300527055089	1.6608820101872117	0.0	446.55149203318166	235.08138033992762	0.0	522.1774143119898	482.4326799210369	0.0
1564	52.154320987654316	709.0768050987571	482.82714870833394	0.0	846.0513753161251	499.98040911823927	0.0	911.9405054369164	713.3351722367232	0.0	433.9659030578322	785.5989192782332	0.0	280.943603515625	790.1848144531251	0.0	244.879150390625	790.1848144531251	0.0	226.846923828125	724.066650390625	0.0	589.279193968362	501.19158623209444	0.0	609.175821594164	717.7022827562295	0.0	383.5185546875001	785.5986328125	0.0	118.05419921875	736.7119140624999	0.0	1115.2773512714252	743.7241356079146	0.0	278.5900659301903	728.8483744875264	0.0	739.6488292834011	29.96289423533887	0.0	1269.673731306363	-85.37549125427671	0.0	889.2757652192199	-25.198073339741345	0.0	992.8694342994783	-3.6084926206950683	0.0	1063.5969303519603	186.76315144418194	0.0	933.235009453985	182.13334877824323	0.0	488.87367661471006	5.555492753364694	0.0	444.7941664379339	234.98147354244148	0.0	524.0873438704249	478.48428152623	0.0
1565	52.18766774020396	710.598064852548	479.8587705183254	0.0	846.8106423029379	498.45863403643915	0.0	901.821881810301	710.7261642968342	0.0	433.96349155379426	785.5992886221071	0.0	280.943603515625	790.1848144531251	0.0	244.879150390625	790.1848144531251	0.0	226.846923828125	724.066650390625	0.0	590.6959024302157	500.1291180321983	0.0	611.6811999779218	717.1044150354926	0.0	383.5185546875001	785.5986328125	0.0	118.05419921875	736.7119140624999	0.0	1115.2826956255014	743.7241274957532	0.0	278.5900659301903	728.8483744875264	0.0	737.1609174285046	31.745452721409617	0.0	1269.674236024033	-85.3761246345963	0.0	870.4996330692037	5.874947552176904	0.0	991.2490963109536	-1.5753391379471409	0.0	1081.5212148087362	171.9430255833914	0.0	966.6902600786225	255.27852121616408	0.0	489.81962638344896	10.425574127562053	0.0	443.3053820293378	236.3637124532125	0.0	526.3598357221572	479.34525953043556	0.0
